<svg width="500" height="500" viewBox="0 0 500 500" fill="none" xmlns="http://www.w3.org/2000/svg">
<g clip-path="url(#clip0_65_8719)">
<path fill-rule="evenodd" clip-rule="evenodd" d="M479 112.562L478.689 90.3652L365.61 159.544C364.758 161.585 350.01 190.021 348.584 191.4L479 112.562Z" fill="#002C62"/>
<path fill-rule="evenodd" clip-rule="evenodd" d="M54.1184 213.358C66.5821 210.276 80.5125 206.808 94.2874 203.51C102.155 194.297 109.766 186.139 116.552 179.306C102.432 182.53 86.839 186.112 71.577 189.627C68.6976 193.493 55.8487 211.046 54.1184 213.358Z" fill="#002C62"/>
<path fill-rule="evenodd" clip-rule="evenodd" d="M283.839 372.19C277.992 375.029 272.065 377.746 266.097 380.355C262.325 382.018 258.553 383.681 254.802 385.222C252.193 386.283 249.544 387.229 246.955 388.243C211.22 402.119 175.045 411.231 141.473 412.799C120.824 413.765 97.9988 412.515 78.58 404.796C60.7429 397.672 48.2792 388.385 40.0467 377.658C46.3258 395.59 61.0403 410.96 87.6034 421.525C107.076 429.277 129.8 430.474 150.503 429.507C181.203 428.088 214.065 420.349 246.793 408.466C249.415 407.52 252.038 406.614 254.667 405.627C258.466 404.161 262.23 402.552 266.049 400.97C272.017 398.51 277.965 395.948 283.839 393.224C332.301 370.96 378.479 340.923 414.512 309.581L421.19 278.55C385.428 312.873 336.283 346.918 283.839 372.19Z" fill="#002C62"/>
<path fill-rule="evenodd" clip-rule="evenodd" d="M283.894 325.657C277.236 327.982 271.342 329.983 266.178 331.699C261.907 333.139 258.196 334.362 255.06 335.39C251.951 336.37 249.308 337.228 247.422 337.803C244.779 338.641 243.319 339.107 243.319 339.107C44.7314 400.946 108.233 271.882 198.973 175.275C205.164 168.678 218.993 155.538 235.35 142.371L235.891 85.3521C169.159 113.504 107.361 153.497 72.2475 182.527C94.9106 176.228 118.033 171.246 140.987 166.015C-56.2962 354.673 57.9791 454.342 247.064 378.668C249.625 377.661 252.255 376.404 254.837 375.343C258.574 373.747 262.319 372.233 266.117 370.517C271.964 367.881 277.905 364.988 283.84 362C326.104 341.007 370.998 311.97 416.378 273.639C363.056 297.046 315.573 314.646 283.894 325.657Z" fill="#860037"/>
<path fill-rule="evenodd" clip-rule="evenodd" d="M473.063 85.2571C429.893 44.1756 363.31 44.9191 295.314 64.25C232.91 84.9307 234.803 85.877 234.803 85.877V142.653C234.803 142.653 248.05 129.405 295.314 104.203C342.577 79.0002 407.859 70.8603 367.447 149.989L473.063 85.2571Z" fill="#860037"/>
<path fill-rule="evenodd" clip-rule="evenodd" d="M307.857 106.712C303.876 108.395 299.726 110.389 295.312 112.674L295.305 134.282C302.943 129.963 310.067 126.334 316.887 123.454C340.347 113.573 360.402 107.341 371.459 110.896C373.122 84.6372 344.68 91.2137 307.857 106.712Z" fill="#002C62"/>
<path fill-rule="evenodd" clip-rule="evenodd" d="M295.364 112.373C286.671 117.009 253.728 138.868 244.265 146.438C234.803 154.008 216.028 169.578 204.885 180.823C176.134 209.838 120.424 279.816 121.37 317.369C121.587 327.21 125.04 334.125 130.759 338.741C130.569 337.261 130.427 335.74 130.387 334.125C129.447 296.545 188.427 225.027 213.942 197.592C226.315 184.289 235.797 176.897 245.212 169.149C276.479 143.416 288.74 137.922 295.364 134.137V112.373Z" fill="#002C62"/>
</g>
<defs>
<clipPath id="clip0_65_8719">
<rect width="500" height="500" fill="white"/>
</clipPath>
</defs>
</svg>
