<svg width="500" height="500" viewBox="0 0 500 500" fill="none" xmlns="http://www.w3.org/2000/svg">
<mask id="mask0_64_8336" style="mask-type:alpha" maskUnits="userSpaceOnUse" x="45" y="23" width="410" height="454">
<path d="M45 23H454.765V476.899H45V23Z" fill="white"/>
</mask>
<g mask="url(#mask0_64_8336)">
<path fill-rule="evenodd" clip-rule="evenodd" d="M405.627 144.955C398.904 135.01 391.187 125.662 382.689 117.158C378.998 113.477 375.157 109.937 371.167 106.563L454.765 22.9973H211.212L117.208 116.965L117.226 116.956C117.155 117.026 117.085 117.097 117.015 117.158C108.516 125.662 100.8 135.01 94.0762 144.955C87.2913 154.996 81.4644 165.723 76.7624 176.854C66.963 200.004 61.9974 224.594 61.9974 249.948C61.9974 275.294 66.963 299.892 76.7624 323.042C81.4644 334.173 87.2913 344.9 94.0762 354.941C100.8 364.886 108.516 374.234 117.015 382.729C120.715 386.428 124.573 389.977 128.581 393.359L45 476.899H288.491L382.882 382.545H382.873C391.302 374.102 398.957 364.807 405.627 354.941C412.412 344.9 418.239 334.173 422.95 323.042C432.741 299.892 437.706 275.294 437.706 249.948C437.706 224.594 432.741 200.004 422.95 176.854C418.239 165.723 412.412 154.996 405.627 144.955Z" fill="#051821"/>
</g>
<path fill-rule="evenodd" clip-rule="evenodd" d="M371.682 127.959C368 124.278 364.194 120.799 360.275 117.522L258.053 219.704C263.089 221.119 267.835 223.798 271.799 227.752L271.825 227.778C284.173 240.121 284.173 260.125 271.825 272.46L82.481 461.739H104.664L282.916 283.547C301.338 265.142 301.39 235.333 283.083 216.858L294.175 205.771C318.599 230.37 318.546 270.106 294.008 294.634L126.846 461.739H149.029L305.099 305.721C335.772 275.069 335.824 225.406 305.266 194.684L316.357 183.597C353.042 220.442 352.989 280.033 316.199 316.817L171.212 461.739H193.403L327.291 327.904C370.206 284.997 370.259 215.479 327.449 172.501L338.54 161.414C387.476 210.506 387.432 289.96 338.382 338.991L215.586 461.739H237.778L349.473 350.078C404.64 294.924 404.702 205.551 349.64 150.327L360.802 139.169C422.033 200.552 421.98 299.923 360.635 361.244L260.101 461.739H282.292L371.726 372.323L371.682 372.279C439.18 304.816 439.18 195.431 371.682 127.959Z" fill="#FEFEFE"/>
<path fill-rule="evenodd" clip-rule="evenodd" d="M128.127 372.086C131.809 375.767 135.615 379.246 139.535 382.523L241.756 280.341C236.72 278.926 231.974 276.247 228.011 272.293C228.002 272.285 227.993 272.276 227.984 272.267C215.636 259.924 215.636 239.92 227.984 227.585L417.583 38.0598H395.4L216.893 216.498C198.472 234.903 198.419 264.712 216.726 283.187L205.635 294.274C181.211 269.675 181.263 229.94 205.802 205.411L373.218 38.0598H351.035L194.71 194.324C164.038 224.976 163.985 274.639 194.543 305.361L183.452 316.448C146.768 279.603 146.82 220.012 183.61 183.228L328.852 38.0598H306.661L172.519 172.141C129.603 215.048 129.551 284.575 172.361 327.544L161.269 338.631C112.334 289.539 112.378 210.085 161.427 161.054L284.478 38.0598H262.295L150.336 149.967C95.1692 205.121 95.1077 294.494 150.169 349.718L139.007 360.876C77.7764 299.493 77.8291 200.122 139.174 138.81L239.963 38.0598H217.781L128.083 127.723L128.127 127.767C60.6296 195.238 60.6296 304.615 128.127 372.086Z" fill="#E0393D"/>
</svg>
