<svg width="500" height="500" viewBox="0 0 500 500" fill="none" xmlns="http://www.w3.org/2000/svg">
<path fill-rule="evenodd" clip-rule="evenodd" d="M136.724 222.196C136.988 228.478 142.14 298.209 142.14 298.209C142.14 298.209 58.1619 301.711 47 302.174C56.1139 308.589 123.828 356.211 123.828 356.211C123.828 356.211 76.5891 426.557 70.4326 435.704C80.8969 432.282 159.369 406.651 159.369 406.651C159.369 406.651 191.121 483.008 195.264 492.975C198.289 482.59 221.981 401.322 221.981 401.322C221.981 401.322 310.583 424.092 322.353 427.119C314.445 417.994 257.006 351.691 257.006 351.691C257.006 351.691 326.683 292.332 334.851 285.599C325.196 285.537 281.032 284.897 281.032 284.897L292.368 272.496H365.974L453 118.416V8H376.461L343.122 67.035C343.122 67.035 339.47 96.7354 338.7 103.078C335.556 108.658 309.617 154.815 301.156 169.874H288.905C301.781 147.141 318.611 117.393 318.611 117.393V8H239.805L207.682 66.8707C207.682 66.8707 204.308 96.6956 203.573 103.175C200.285 109.029 136.724 222.196 136.724 222.196Z" fill="white"/>
<path fill-rule="evenodd" clip-rule="evenodd" d="M388.445 28.5083L363.007 73.5692L358.577 109.595L313.16 190.395H253.705L298.088 111.999V28.5083H251.996L227.634 73.1685L223.508 109.595L158.774 224.842L169.612 251.991H209.917L191.572 298.413L157.231 261.293L161.268 315.775L101.761 318.254L149.092 351.557L115.372 401.728L169.799 383.95L192.212 437.815L209.316 379.129L270.002 394.726L230.82 349.506L279.036 309.719L229.266 312.796L283.117 251.991H353.993L432.483 113.037V28.5083H388.445Z" fill="#0F1216"/>
<path fill-rule="evenodd" clip-rule="evenodd" d="M394.656 40.6104L378.92 68.7053H400.419L415.383 40.6104H394.656Z" fill="#C1C9CA"/>
<path fill-rule="evenodd" clip-rule="evenodd" d="M281.642 40.6104L259.329 40.6278L243.739 68.7476L266.893 68.6954L281.642 40.6104Z" fill="#C1C9CA"/>
<path fill-rule="evenodd" clip-rule="evenodd" d="M186.908 353.654C182.632 353.654 179.164 350.189 179.164 345.92C179.164 341.637 182.632 338.177 186.908 338.177C191.176 338.177 194.666 341.637 194.666 345.92C194.666 350.189 191.176 353.654 186.908 353.654ZM321.414 201.304H208.482L255.546 118.53H233.422L176.606 218.715H239.618L193.525 323.792L172.739 301.332L174.829 329.666L143.88 330.953L168.498 348.28L150.97 374.349L179.266 365.114L190.924 393.132L199.814 362.608L231.376 370.717L210.996 347.207L236.08 326.515L200.9 328.683H198.458L271.312 218.715H334.437L390.282 118.53H368.491L321.414 201.304Z" fill="#C1C9CA"/>
<path fill-rule="evenodd" clip-rule="evenodd" d="M261.052 80.041H240.844L238.238 104.101L259.104 104.151L261.052 80.041Z" fill="#C1C9CA"/>
<path fill-rule="evenodd" clip-rule="evenodd" d="M372.968 104.101L393.845 104.151L395.783 80.041H375.579L372.968 104.101Z" fill="#C1C9CA"/>
</svg>
